<svg width="512" height="512" viewBox="0 0 512 512" fill="none" xmlns="http://www.w3.org/2000/svg">
<path d="M170.667 196.267H68.267C63.147 196.267 59.734 199.68 59.734 204.8V238.933C59.734 244.053 63.147 247.466 68.267 247.466H170.667C175.787 247.466 179.2 244.053 179.2 238.933V204.8C179.2 199.68 175.787 196.267 170.667 196.267ZM162.133 230.4H76.8V213.333H162.133V230.4V230.4Z" fill="white"/>
<path d="M443.733 196.267H418.133V170.667C418.133 165.547 414.72 162.134 409.6 162.134H375.467C370.347 162.134 366.934 165.547 366.934 170.667V196.267H341.334C336.214 196.267 332.801 199.68 332.801 204.8V238.933C332.801 244.053 336.214 247.466 341.334 247.466H366.934V273.066C366.934 278.186 370.347 281.599 375.467 281.599H409.6C414.72 281.599 418.133 278.186 418.133 273.066V247.466H443.733C448.853 247.466 452.266 244.053 452.266 238.933V204.8C452.267 199.68 448.853 196.267 443.733 196.267ZM435.2 230.4H409.6C404.48 230.4 401.067 233.813 401.067 238.933V264.533H384V238.933C384 233.813 380.587 230.4 375.467 230.4H349.867V213.333H375.467C380.587 213.333 384 209.92 384 204.8V179.2H401.067V204.8C401.067 209.92 404.48 213.333 409.6 213.333H435.2V230.4V230.4Z" fill="white"/>
<path d="M503.467 426.667H494.934V128C494.934 122.88 491.521 119.467 486.401 119.467H465.921L451.414 90.454C449.707 87.041 447.147 85.334 443.734 85.334V42.667C443.734 37.547 440.321 34.134 435.201 34.134H384C378.88 34.134 375.467 37.547 375.467 42.667V85.334C372.054 85.334 369.494 87.041 367.787 89.601L352.854 119.468H341.334V51.2C341.334 41.813 333.654 34.133 324.267 34.133H187.733C178.346 34.133 170.666 41.813 170.666 51.2V119.467H158.72L144.213 90.454C142.506 87.041 139.946 85.334 136.533 85.334V42.667C136.533 37.547 133.12 34.134 128 34.134H76.8C71.68 34.134 68.267 37.547 68.267 42.667V85.334C64.854 85.334 62.294 87.041 60.587 89.601L45.654 119.468H25.6C20.48 119.468 17.067 122.881 17.067 128.001V426.668H8.533C3.413 426.667 0 430.08 0 435.2V469.333C0 474.453 3.413 477.866 8.533 477.866H503.466C508.586 477.866 511.999 474.453 511.999 469.333V435.2C512 430.08 508.587 426.667 503.467 426.667ZM392.533 51.2H426.666V85.333H392.533V51.2ZM380.587 102.4H384H435.2H438.613L447.146 119.467H372.053L380.587 102.4ZM187.733 51.2H324.266V119.467H307.2V85.333C307.2 75.946 299.52 68.266 290.133 68.266H221.866C212.479 68.266 204.799 75.946 204.799 85.333V119.466H187.732V51.2H187.733ZM221.867 119.467V85.333H290.134V119.466H221.867V119.467ZM85.333 51.2H119.466V85.333H85.333V51.2ZM73.387 102.4H76.8H128H131.413L139.946 119.467H64.853L73.387 102.4ZM34.133 136.533H51.2H153.6H179.2H213.333H298.666H332.8H358.4H460.8H477.867V426.666H34.133V136.533ZM494.933 460.8H17.067V443.733H25.6H486.4H494.933V460.8V460.8Z" fill="white"/>
</svg>
