<svg width="512" height="512" viewBox="0 0 512 512" fill="none" xmlns="http://www.w3.org/2000/svg">
<path d="M282.483 185.379C228.635 185.379 185.38 228.634 185.38 282.482C185.38 336.33 228.635 379.585 282.483 379.585C336.331 379.585 379.586 336.33 379.586 282.482C379.586 228.634 336.331 185.379 282.483 185.379ZM282.483 361.931C238.345 361.931 203.035 326.621 203.035 282.483C203.035 238.345 238.345 203.035 282.483 203.035C326.621 203.035 361.931 238.345 361.931 282.483C361.931 326.621 326.621 361.931 282.483 361.931Z" fill="white"/>
<path d="M282.483 238.345C257.766 238.345 238.345 257.766 238.345 282.483C238.345 307.2 257.766 326.621 282.483 326.621C307.2 326.621 326.621 307.2 326.621 282.483C326.621 257.766 307.2 238.345 282.483 238.345ZM282.483 308.966C267.476 308.966 256 297.49 256 282.483C256 267.476 267.476 256 282.483 256C297.49 256 308.966 267.476 308.966 282.483C308.966 297.49 297.49 308.966 282.483 308.966Z" fill="white"/>
<path d="M282.483 406.069C277.186 406.069 273.655 409.6 273.655 414.897C273.655 420.194 277.186 423.725 282.483 423.725C287.78 423.725 291.311 420.194 291.311 414.897C291.31 409.6 287.779 406.069 282.483 406.069Z" fill="white"/>
<path d="M282.483 450.207C277.186 450.207 273.655 453.738 273.655 459.035C273.655 464.332 277.186 467.863 282.483 467.863C287.78 467.863 291.311 464.332 291.311 459.035C291.31 453.738 287.779 450.207 282.483 450.207Z" fill="white"/>
<path d="M282.483 158.897C287.78 158.897 291.311 155.366 291.311 150.069C291.311 144.772 287.78 141.241 282.483 141.241C277.186 141.241 273.655 144.772 273.655 150.069C273.655 155.366 277.186 158.897 282.483 158.897Z" fill="white"/>
<path d="M339.841 60.048L343.393 56.496C345.159 54.73 346.041 52.965 346.041 50.317C346.041 47.669 345.158 45.903 343.393 44.138C334.639 35.384 324.952 27.82 314.569 21.545C313.733 20.833 312.817 20.305 311.861 19.952C301.668 14.078 290.839 9.434 279.59 6.108C277.786 4.789 275.677 4.239 273.618 4.47C261.892 1.527 249.762 0 237.462 0C197.738 0 159.779 15.89 131.531 44.138L44.138 131.531C15.89 159.779 0 197.738 0 237.462C0 277.186 15.89 315.145 44.138 343.393C45.904 345.159 47.669 346.041 50.317 346.041C52.083 346.041 54.731 345.158 56.496 343.393L60.048 339.841C86.18 440.204 176.75 512 282.483 512C408.717 512 512 408.717 512 282.483C512 176.75 440.204 86.18 339.841 60.048ZM35.297 303.682L68.855 270.124C72.386 266.593 72.386 261.296 68.855 257.765C65.324 254.234 60.027 254.234 56.496 257.765L27.188 287.073C24.156 279.564 21.829 271.783 20.232 263.778C20.798 263.889 21.406 263.944 22.068 263.944C23.834 263.944 26.482 263.061 28.247 261.296L88.275 201.268C91.806 197.737 91.806 192.44 88.275 188.909C84.744 185.378 79.447 185.378 75.916 188.909L17.976 246.849C17.763 243.746 17.654 240.616 17.654 237.461C17.654 202.151 31.778 168.606 56.495 143.889L143.888 56.496C168.605 31.779 202.15 17.655 237.46 17.655C243.895 17.655 250.225 18.107 256.434 18.985L194.205 81.214C190.674 84.745 190.674 90.042 194.205 93.573C195.971 95.339 197.736 96.221 200.384 96.221C202.15 96.221 204.798 95.338 206.563 93.573L276.645 23.491C282.734 25.366 288.668 27.682 294.426 30.427L256 68.855C252.469 72.386 252.469 77.683 256 81.214C257.766 82.98 259.531 83.862 262.179 83.862C264.827 83.862 266.593 82.979 268.358 81.214L310.243 39.329C315.292 42.635 320.169 46.301 324.854 50.318L316.026 59.146L59.145 316.028C58.449 316.492 57.882 317.083 57.43 317.743L50.318 324.855C44.586 318.169 39.572 311.092 35.297 303.682ZM282.483 494.345C181.848 494.345 95.338 423.724 75.035 324.855L324.855 75.034C423.724 95.337 494.345 181.848 494.345 282.482C494.345 399.007 399.007 494.345 282.483 494.345Z" fill="white"/>
<path d="M459.034 273.655C453.737 273.655 450.206 277.186 450.206 282.483C450.206 287.78 453.737 291.311 459.034 291.311C464.331 291.311 467.862 287.78 467.862 282.483C467.862 277.186 464.331 273.655 459.034 273.655Z" fill="white"/>
<path d="M414.897 273.655C409.6 273.655 406.069 277.186 406.069 282.483C406.069 287.78 409.6 291.311 414.897 291.311C420.194 291.311 423.725 287.78 423.725 282.483C423.724 277.186 420.193 273.655 414.897 273.655Z" fill="white"/>
<path d="M182.731 369.876C179.2 373.407 179.2 378.704 182.731 382.235C186.262 385.766 191.559 385.766 195.09 382.235C198.621 378.704 198.621 373.407 195.09 369.876C191.559 366.345 186.262 366.345 182.731 369.876Z" fill="white"/>
<path d="M151.834 400.772C148.303 404.303 148.303 409.6 151.834 413.131C155.365 416.662 160.662 416.662 164.193 413.131C167.724 409.6 167.724 404.303 164.193 400.772C160.662 397.241 154.483 397.241 151.834 400.772Z" fill="white"/>
<path d="M413.131 164.193C416.662 160.662 416.662 155.365 413.131 151.834C410.483 148.303 404.303 148.303 400.772 151.834C397.241 155.365 397.241 160.662 400.772 164.193C404.303 167.724 409.6 167.724 413.131 164.193Z" fill="white"/>
<path d="M369.876 182.731C366.345 186.262 366.345 191.559 369.876 195.09C373.407 198.621 378.704 198.621 382.235 195.09C385.766 191.559 385.766 186.262 382.235 182.731C378.703 179.2 373.407 179.2 369.876 182.731Z" fill="white"/>
<path d="M400.772 400.772C397.241 404.303 397.241 409.6 400.772 413.131C404.303 416.662 409.6 416.662 413.131 413.131C416.662 410.483 416.662 404.303 413.131 400.772C409.6 397.241 404.303 397.241 400.772 400.772Z" fill="white"/>
<path d="M369.876 369.876C366.345 373.407 366.345 378.704 369.876 382.235C373.407 385.766 378.704 385.766 382.235 382.235C385.766 378.704 385.766 373.407 382.235 369.876C378.703 366.345 373.407 366.345 369.876 369.876Z" fill="white"/>
</svg>
