<svg width="512" height="420" viewBox="0 0 512 420" fill="none" xmlns="http://www.w3.org/2000/svg">
<path d="M332.8 316.667H179.2C174.08 316.667 170.667 320.08 170.667 325.2V376.4C170.667 381.52 174.08 384.933 179.2 384.933H332.8C337.92 384.933 341.333 381.52 341.333 376.4V325.2C341.333 320.08 337.92 316.667 332.8 316.667ZM324.267 367.867H187.733V333.734H324.266V367.867H324.267Z" fill="white"/>
<path d="M337.067 163.92L296.107 188.667C281.6 197.2 266.24 204.88 251.734 211.707C247.467 213.414 242.347 215.974 237.227 218.534C219.307 227.921 209.92 247.547 214.187 267.174C217.6 282.534 230.4 295.334 245.76 298.747C249.173 299.6 252.587 299.6 256 299.6C272.213 299.6 286.72 290.213 294.4 275.707C296.107 271.44 298.667 266.32 301.227 261.2C308.907 246.693 315.734 231.333 324.267 216.827L349.014 175.867C350.721 172.454 349.867 169.04 347.307 165.627C344.747 162.213 340.48 162.213 337.067 163.92ZM309.76 207.44C300.373 222.8 292.693 238.16 285.867 253.52C284.16 258.64 281.6 262.907 279.04 268.027C273.92 279.12 261.973 284.24 250.027 281.68C240.64 279.973 232.96 272.293 231.254 262.907C228.694 250.96 233.814 239.014 244.907 233.894C249.174 231.334 254.294 229.627 259.414 227.067C274.774 219.387 290.987 211.707 305.494 203.174L316.587 196.347L309.76 207.44Z" fill="white"/>
<path d="M493.719 162.208C493.611 161.633 493.449 161.062 493.227 160.506C493.004 159.948 492.72 159.437 492.39 158.969C479.603 128.353 461.025 100.704 438.042 77.404C437.718 76.922 437.341 76.46 436.907 76.026C436.473 75.592 436.011 75.215 435.529 74.891C389.233 29.226 325.764 0.932999 256 0.932999C222.582 0.932999 190.611 7.433 161.275 19.214C160.7 19.322 160.129 19.484 159.574 19.706C159.017 19.929 158.505 20.213 158.037 20.543C127.421 33.33 99.772 51.908 76.472 74.891C75.99 75.215 75.528 75.592 75.094 76.026C74.66 76.46 74.282 76.922 73.959 77.404C28.293 123.7 0 187.169 0 256.933C0 314.96 18.773 370.426 55.467 415.653C57.174 418.213 59.734 419.066 62.294 419.066H449.707C452.267 419.066 454.827 418.213 456.534 415.653C493.227 370.427 512 314.96 512 256.933C512 223.515 505.5 191.544 493.719 162.208ZM446.293 402H66.56C55.021 387.12 45.438 371.156 37.865 354.384L61.44 344.827C65.707 343.12 67.413 338 65.707 333.734C64 329.467 58.88 327.761 54.614 329.467L31.504 338.836C22.93 315.494 18.11 290.815 17.226 265.467H76.8C81.92 265.467 85.333 262.054 85.333 256.934C85.333 251.814 81.92 248.4 76.8 248.4H17.237C18.194 221.493 23.653 195.685 32.885 171.706L56.32 181.84C57.173 182.693 58.88 182.693 59.733 182.693C63.146 182.693 65.706 180.986 67.413 177.573C69.12 173.306 67.413 168.186 63.146 166.48L39.474 156.243C50.173 133.412 64.38 112.522 81.396 94.276L98.986 111.866C100.693 113.573 102.399 114.426 104.959 114.426C107.519 114.426 109.226 113.573 110.932 111.866C114.345 108.453 114.345 103.333 110.932 99.919L93.342 82.329C112.459 64.501 134.473 49.748 158.586 38.891L168.106 62.373C168.959 65.786 172.373 67.493 175.786 67.493C176.639 67.493 177.493 67.493 179.199 66.64C183.466 64.933 185.172 59.813 183.466 55.547L174.137 32.535C197.158 24.072 221.816 19.083 247.466 18.171V77.734C247.466 82.854 250.879 86.267 255.999 86.267C261.119 86.267 264.532 82.854 264.532 77.734V18.17C291.439 19.127 317.247 24.586 341.226 33.818L331.092 57.254C329.385 61.521 331.092 66.641 335.359 68.347C336.212 69.2 337.919 69.2 338.772 69.2C342.185 69.2 345.599 66.64 346.452 64.08L356.689 40.408C379.52 51.107 400.41 65.314 418.656 82.33L401.066 99.92C397.653 103.333 397.653 108.453 401.066 111.867C402.773 113.574 404.479 114.427 407.039 114.427C408.746 114.427 411.306 113.574 413.012 111.867L430.602 94.277C448.43 113.394 463.183 135.408 474.04 159.521L450.558 169.041C446.291 170.748 444.585 175.868 446.291 180.134C447.144 183.547 450.558 185.254 453.971 185.254C454.824 185.254 455.678 184.401 457.384 184.401L480.397 175.072C488.86 198.093 493.849 222.751 494.761 248.401H435.2C430.08 248.401 426.667 251.814 426.667 256.934C426.667 262.054 430.08 265.467 435.2 265.467H494.775C493.848 292.06 488.603 317.917 479.357 342.266L455.68 332.027C451.413 330.32 446.293 332.027 444.587 336.294C442.88 340.561 444.587 345.681 448.854 347.387L472.835 357.757C465.644 373.298 456.773 388.121 446.293 402Z" fill="white"/>
</svg>
